<svg width="1138" height="407" viewBox="0 0 1138 407" fill="none" xmlns="http://www.w3.org/2000/svg">
<g clip-path="url(#clip0)">
<path fill-rule="evenodd" clip-rule="evenodd" d="M406.329 83.0495C400.699 77.0938 395.505 75.4745 390.191 75.4745C374.379 75.4745 363.882 87.6015 363.882 102.872C363.882 119.22 374.379 131.352 390.191 131.352C396.367 131.352 402.323 128.539 407.411 122.037L418.676 130.053C411.743 139.584 401.35 143.699 390.091 143.699C366.484 143.699 349.584 127.667 349.584 103.739C349.584 79.1542 366.484 63.127 390.091 63.127C400.483 63.127 409.362 66.4908 416.942 75.2589L406.329 83.0495Z" fill="#005795"/>
<path fill-rule="evenodd" clip-rule="evenodd" d="M493.026 112.513L481.225 81.3258L469.203 112.513H493.026ZM475.701 65.083H487.502L520.534 141.755H504.933L497.789 124.214H464.541L457.613 141.755H442.348L475.701 65.083Z" fill="#005795"/>
<path fill-rule="evenodd" clip-rule="evenodd" d="M553.803 65.083H571.895L609.033 122.043L609.254 122.259H609.033L609.254 122.043V65.083H622.895V141.755H605.574L567.669 82.9501H567.449V141.755H553.803V65.083Z" fill="#005795"/>
<path fill-rule="evenodd" clip-rule="evenodd" d="M1005.68 112.513L993.876 81.3258L981.854 112.513H1005.68ZM988.346 65.083H1000.15L1033.18 141.755H1017.58L1010.44 124.214H977.192L970.263 141.755H954.998L988.346 65.083Z" fill="#005795"/>
<path fill-rule="evenodd" clip-rule="evenodd" d="M1066.45 65.083H1084.53L1121.68 122.043L1121.9 122.259H1121.68L1121.9 122.043V65.083H1135.54V141.755H1118.22L1080.31 82.9501H1080.09V141.755H1066.45V65.083Z" fill="#005795"/>
<path fill-rule="evenodd" clip-rule="evenodd" d="M706.833 112.513L695.032 81.3258L683.005 112.513H706.833ZM689.507 65.083H701.313L734.335 141.755H718.739L711.595 124.214H678.353L671.425 141.755H656.154L689.507 65.083Z" fill="#005795"/>
<path fill-rule="evenodd" clip-rule="evenodd" d="M791.427 129.408C808.532 129.408 822.504 122.043 822.504 103.419C822.504 84.79 810.377 77.4255 793.703 77.4255H781.246V129.408H791.427ZM767.6 65.083H797.814C817.957 65.083 836.802 77.4255 836.802 103.419C836.802 129.628 814.598 141.755 796.185 141.755H767.6V65.083Z" fill="#005795"/>
<path fill-rule="evenodd" clip-rule="evenodd" d="M431.41 350.775C466.433 350.775 489.538 324.09 489.538 288.115C489.538 254.516 466.433 227.836 431.41 227.836C396.619 227.836 373.503 254.516 373.503 288.115C373.503 324.09 396.619 350.775 431.41 350.775ZM431.17 200.664C483.828 199.717 520.996 234.985 520.996 289.062C520.996 341.721 483.828 376.984 431.17 377.941C379.228 377.941 342.055 342.679 342.055 290.015C342.055 235.937 379.228 200.664 431.17 200.664Z" fill="#005795"/>
<path fill-rule="evenodd" clip-rule="evenodd" d="M643.001 278.103C660.156 278.103 682.315 277.15 682.315 254.275C682.315 233.545 662.533 230.683 646.335 230.683H624.884V278.103H643.001ZM594.859 204.955H651.584C684.215 204.955 713.763 216.385 713.763 253.799C713.763 296.211 682.074 303.831 646.335 303.831H624.884V373.645H594.859V204.955Z" fill="#005795"/>
<path fill-rule="evenodd" clip-rule="evenodd" d="M788.113 204.955H899.853V232.117H818.127V273.576H895.572V300.738H818.127V346.478H904.144V373.645H788.113V204.955Z" fill="#005795"/>
<path fill-rule="evenodd" clip-rule="evenodd" d="M983.521 204.955H1023.31L1105.04 330.281L1105.51 330.752H1105.04L1105.51 330.281V204.955H1135.54V373.645H1097.41L1014.03 244.269H1013.55V373.645H983.521V204.955Z" fill="#005795"/>
<path fill-rule="evenodd" clip-rule="evenodd" d="M274.584 361.869C274.584 373.796 269.696 380.709 260.146 384.394C223.033 398.696 179.097 406.071 137.292 406.071C95.4917 406.071 51.5409 398.696 14.4381 384.394C4.88789 380.709 0 373.796 0 361.869V45.1191H274.584V361.869Z" fill="#005795"/>
<path fill-rule="evenodd" clip-rule="evenodd" d="M73.6409 238.146C35.6207 214.409 23.0676 203.906 21.9998 188.335C21.8193 185.172 22.5362 179.843 23.8597 176.033L20.2752 173.651C17.4127 178.218 15.5879 184.229 15.5879 189.754C15.5879 198.743 18.4655 205.55 21.9998 210.99C27.3389 219.217 32.9587 224.385 46.8002 234.757C61.7145 245.952 71.8913 259.021 77.7568 272.687H79.8724V257.182C100.036 268.612 117.797 279.37 126.535 298.611H128.651C125.232 278.683 113.962 263.308 73.6409 238.146Z" fill="#FFDA1B"/>
<path fill-rule="evenodd" clip-rule="evenodd" d="M185.207 186.242C176.89 189.977 171.16 195.041 166.041 202.295L183.036 201.417C183.653 193.868 184.64 188.854 185.207 186.242ZM246.458 246.907C248.168 242.751 249.266 238.766 249.566 233.708L224.736 232.299C223.608 239.257 221.758 245.303 219.783 250.256L246.458 246.907ZM219.577 185.285C221.367 190.067 222.711 194.705 223.683 199.166L238.287 198.359C233.268 192.594 226.856 188.057 219.577 185.285ZM212.945 199.763C210.458 191.135 207.475 185.14 205.911 182.317C204.914 182.257 203.906 182.232 202.888 182.232C201.214 182.232 199.514 182.452 197.89 182.623C195.469 188.654 193.509 194.755 191.904 200.931L212.945 199.763ZM225.132 207.589C225.909 213.805 225.994 219.64 225.588 225.035L249.486 223.771C248.875 218.342 247.33 213.198 245.014 208.496L225.132 207.589ZM217.011 225.486C216.77 218.683 215.923 212.537 214.78 207.102L190.671 206.015C189.007 213.354 187.924 220.518 187.412 227.05L217.011 225.486ZM220.72 173.88L223.543 169.914L219.166 164.079L219.898 162.791L232.211 169.423L229.529 177.56C231.509 178.517 233.334 179.725 235.765 181.339L243.721 168.26L223.132 157.497H177.617L140.674 179.725C147.613 184.538 153.989 189.752 158.531 195C168.427 180.593 185.823 171.403 203.044 171.403C208.674 171.403 215.231 172 220.72 173.88ZM129.645 172.586L150.044 160.359C146.038 158.379 141.612 157.106 136.353 157.035C129.329 156.935 117.468 160.164 111.723 161.041C114.29 162.796 123.399 168.616 129.645 172.586ZM133.826 126.55C126.587 124.961 122.557 125.853 118.396 129.819C120.426 130.801 122.978 131.328 125.8 131.122C129.861 130.841 132.387 128.395 133.826 126.55ZM248.754 298.634H246.177C246.177 284.446 233.163 280.591 219.542 280.591H176.965C178.339 287.58 178.975 295.766 177.907 303.497H175.792C171.846 271.628 153.839 255.826 128.648 238.921V253.43H126.532C119.839 238.46 105.131 224.408 91.1988 214.437H91.2039C87.4991 211.795 83.664 209.053 79.869 206.355V221.997H77.7534C71.8428 206.481 61.1195 194.9 45.8393 181.114C29.3358 166.245 22.6632 157.351 18.808 147.129C16.4668 140.928 15.8001 135.925 15.7199 129.122C15.5594 116.96 21.7107 105.971 29.3809 101.865V107.75C25.5758 112.784 23.6057 119.151 23.5956 125.623C23.5856 131.598 25.0043 138.241 27.9822 143.901C37.2817 161.607 68.5943 183.325 88.4767 196.66C150.32 238.139 162.652 245.373 172.924 267.381C174.072 269.828 175.21 273.131 176.158 276.952C185.096 275.578 217.502 270.645 223.478 269.702C224.621 269.522 227.012 269.211 228.24 269.141C233.83 265.617 238.191 261.115 242.011 255.505L218.324 253.67C217.101 256.387 215.883 258.668 214.815 260.498H212.88C213.531 258.087 214.093 255.721 214.579 253.389L208.518 252.928V251.645L215.08 250.828C216.329 244.12 216.93 237.783 217.061 231.858L187.207 230.163C187.042 233.216 187.016 236.109 187.117 238.791H185.197C184.57 235.803 184.074 232.85 183.688 229.963L177.14 229.587V227.586L183.357 227.256C182.484 219.355 182.434 211.98 182.76 205.649L165.294 204.846C166.116 206.386 166.969 207.935 167.575 209.634C171.335 220.162 170.448 232.504 169.204 238.189H167.084C166.773 231.612 164.567 223.566 162.472 218.648C157.644 207.263 146.81 197.201 128.648 185.541V200.084H126.532C120.491 180.979 105.461 170.351 83.1025 158.87C64.6539 149.405 58.9238 137.995 59.9715 120.344L66.2029 124.028C67.7972 140.542 80.4856 150.072 93.7606 149.977C101.576 149.917 108.901 148.879 115.984 147.46C126.201 145.395 135.661 143.63 143.552 146.427V136.682H137.351C135.13 138.592 130.633 140.818 124.02 140.928C116.736 141.058 102.97 136.867 102.97 121.482C102.97 108.121 114.28 105.991 123.484 105.991C128.412 105.991 136.609 105.81 139.381 105.655C141.441 105.53 142.98 105.214 143.983 104.226C145.026 103.198 145.347 102.141 145.587 100.777C145.873 99.1227 145.873 97.4283 145.873 94.5557C145.873 93.5079 145.873 84.8 145.873 84.8H103.211V101.7L87.068 95.5584V91.5177H94.7933V84.8H66.0124V70.768H56.1966C50.9477 70.768 44.9018 74.4477 44.4757 81.5615C44.0746 88.3995 47.1427 94.1446 54.1762 94.1446H55.4396V102.326H54.1762C41.8538 102.326 32.5743 93.0718 32.5743 80.7944C32.5743 67.9907 43.473 58.25 56.6528 58.25H77.4626V72.287H158.391C158.391 72.287 158.391 89.0562 158.391 93.0167C158.391 96.5058 158.205 101.203 157.86 104.166C157.619 106.327 156.852 110.207 152.766 113.335C150.3 115.21 146.585 115.977 140.549 115.997C138.579 116.007 132.839 115.912 125.96 115.481C116.736 114.899 114.119 118.459 113.753 121.762C113.673 122.459 113.678 123.136 113.753 123.783C118.065 120.439 124.181 118.088 131.114 120.268C143.331 124.109 146.82 124.45 153.182 119.456L153.819 120.885C153.132 121.943 151.909 123.472 150.119 124.826H156.025V156.77L174.383 145.766H225.924C225.924 145.766 247.706 157.151 251.296 159.031C254.464 160.69 255.698 162.7 256.194 165.653C256.605 168.115 255.968 171.243 254.755 173.253C253.993 174.491 248.082 184.197 244.949 189.381C253.707 198.861 259.633 212.121 259.633 226.895C259.633 240.285 254.67 257.55 238.587 270.389C245.656 272.69 250.188 276.55 253.747 281.629L248.754 298.634Z" fill="#FFDA1B"/>
<path fill-rule="evenodd" clip-rule="evenodd" d="M138.898 367.186C135.63 367.186 129.153 367.186 129.153 367.186V339.267C129.153 339.267 134.452 339.267 138.452 339.267C151.246 339.267 156.154 343.077 156.154 352.658C156.154 363.025 149.747 367.186 138.898 367.186ZM138.126 311.775C145.852 311.775 151.106 313.454 151.106 321.711C151.106 330.519 144.072 332.936 136.056 332.936C132.161 332.936 129.153 332.936 129.153 332.936V311.775C129.153 311.775 133.474 311.775 138.126 311.775ZM153.677 335.327C160.601 334.199 167.223 328.815 167.223 320.668C167.223 313.329 164.1 305.268 142.488 305.268C126.305 305.268 106.012 305.268 106.012 305.268V305.849C107.12 306.185 108.854 307.077 110.002 308.205C112.479 310.637 113.301 314.241 113.416 319.049V373.653C113.416 373.653 133.404 373.653 143.641 373.653C160.265 373.653 172.296 367.321 172.296 352.788C172.296 340.972 163.102 335.943 153.677 335.327Z" fill="#FFFFFE"/>
<path fill-rule="evenodd" clip-rule="evenodd" d="M51.0063 311.775C51.0063 311.775 57.0071 311.775 61.6444 311.775C70.5077 311.775 75.1349 314.367 75.1349 323.776C75.1349 332.184 69.084 337.162 59.3884 337.162C55.4881 337.162 51.0063 337.162 51.0063 337.162V311.775ZM79.0904 373.653H98.7873L73.6209 341.483C83.7025 338.791 91.2574 333.271 91.2574 323.245C91.2574 311.479 84.2239 305.268 65.8053 305.268C49.4723 305.268 27.75 305.268 27.75 305.268V305.849C29.1487 306.34 30.7178 307.243 31.7455 308.26C34.4126 310.892 35.2047 314.893 35.2047 320.317C35.2047 320.332 35.2047 373.653 35.2047 373.653H51.0063V343.333C51.0063 343.333 54.4404 343.333 56.7715 343.333L79.0904 373.653Z" fill="#FFFFFE"/>
<path fill-rule="evenodd" clip-rule="evenodd" d="M236.175 314.628C240.407 317.02 241.69 320.153 241.715 320.178C241.916 320.414 242.377 320.343 242.377 320.343L245.816 308.638C245.816 308.638 239.645 304.211 224.941 304.211C202.712 304.211 186.068 315.41 186.068 339.92C186.068 367.538 205.891 374.707 223.377 374.707C239.645 374.707 246.031 369.523 246.031 369.523V361.512C246.031 361.512 240.281 366.871 227.959 366.871C217.782 366.871 202.858 362.234 202.532 339.524C202.231 318.564 211.375 311.726 223.617 311.726C230.45 311.726 233.854 313.325 236.175 314.628Z" fill="#FFFFFE"/>
<path fill-rule="evenodd" clip-rule="evenodd" d="M924.652 30.2029C923.263 30.7343 920.491 30.8948 917.428 31.0101C919.388 25.2098 920.305 19.3543 922.235 16.0957C923.123 14.7221 923.734 13.6744 924.045 12.762L926.562 11.7393C929.224 14.662 924.346 22.8786 924.652 30.2029ZM909.497 28.1776C908.96 29.1301 907.326 29.6715 905.992 28.5636C902.298 25.28 898.773 24.0818 896.648 23.9464L915.919 16.0807L915.733 17.5195C913.588 21.2092 911.482 24.7085 909.497 28.1776ZM936.804 5.11179C936.307 3.95875 935.285 3.30703 933.911 3.90862L932.763 4.40493C932.146 3.72814 930.908 3.76323 930.562 3.99384C929.795 4.52023 928.943 4.61047 928.652 4.64556C928.001 4.72577 926.993 5.54293 926.306 5.90889C926.005 6.06931 925.579 6.14953 925.253 6.26984C924.577 6.52552 924.441 7.37275 924.526 7.98436L923.363 8.48568C922.787 7.74874 921.528 7.91919 921.107 7.99439C920.656 8.0746 917.067 9.79915 916.26 10.13C915.568 10.4007 915.437 11.278 915.538 11.8947L893.565 21.4448C894.171 19.3443 890.913 11.6189 889.303 8.76141C891.304 6.36008 892.001 4.06403 891.655 3.50756C891.048 2.50492 887.203 1.95346 884.05 3.28197C883.002 3.72814 881.513 3.99384 880.22 4.53026C878.51 5.22709 877.969 5.92894 875.126 7.59333C870.263 10.4459 870.81 14.3562 874.098 17.7702C875.823 19.5499 875.382 20.9786 877.527 20.7229C878.565 22.8586 881.087 25.691 882.551 26.2325L856.151 37.7077C854.938 38.2391 853.715 38.4447 851.965 38.8156C850.22 39.1766 848.471 40.5653 847.98 43.4128C847.498 46.2553 848.185 50.6067 851.524 50.5616C854.858 50.5265 855.484 46.2553 855.585 45.1574C855.665 44.28 855.033 40.9412 859.71 39.0312L879.663 30.8897C873.662 40.4098 885.153 47.7592 889.379 60.8638C890.853 65.4609 890.045 69.8424 889.825 75.7931C889.745 77.1567 891.259 77.1868 891.509 77.1868C891.509 77.1868 890.196 78.5554 890.336 80.2799C890.832 86.6417 887.203 87.5942 888.867 97.8914C888.697 103.561 890.411 108.86 890.166 112.841C889.98 115.914 887.409 118.611 886.907 121.97C886.667 123.664 887.729 125.97 887.564 127.82C887.409 129.615 886.075 131.355 885.604 133.029C883.057 142.329 882.962 152.791 892.126 153.207C895.279 153.172 893.384 143.622 893.419 138.238C897.706 139.27 895.329 135.521 898.518 134.989C899.305 134.859 900.673 133.53 900.889 132.082L903.476 121.213C904.784 104.98 906.208 99.0244 907.105 99.0244C908.238 99.0244 907.887 109.562 907.812 112.029L907.406 118.807L904.799 133.029C904.634 134.413 903.2 140.649 902.719 142.208C902.223 143.752 902.042 150.726 902.117 152.515L900.839 155.909L899.997 159.293L898.723 162.266C898.723 162.266 898.332 163.354 900.323 163.484C897.355 166.783 894.858 169.671 892.948 174.589C891.499 178.043 900.673 178.043 902.358 176.469C902.584 176.624 907.963 169.184 909.036 164.261C909.076 164.066 909.111 163.865 909.136 163.66C910.003 163.534 910.504 163.414 910.8 162.923C911.632 161.644 912.284 158.456 912.284 158.456L912.71 155.483L913.979 151.668L914.675 146.585L916.515 141.922L918.806 137.586C919.694 134.012 920.461 130.222 921.117 126.276C921.764 122.917 923.173 118.696 923.469 117.573C924.551 113.518 924.06 106.9 924.266 101.651C924.566 93.2291 925.103 90.0908 923.413 84.2253L923.403 84.2304C923.253 80.8866 923.027 77.5678 922.686 74.3192C922.646 74.0686 922.461 73.487 922.125 72.6548C924.015 71.958 923.183 69.8775 922.275 67.01C919.869 59.3949 918.816 54.7877 917.001 48.2405C916.495 46.4157 915.939 44.7212 915.352 43.1471C922.305 41.1919 932.302 37.452 932.422 36.1887C934.382 21.8309 932.673 20.9786 933.154 11.6039C933.781 10.3456 934.041 9.50838 934.092 8.66115L935.681 8.00943C937.074 7.44795 937.295 6.25982 936.804 5.11179Z" fill="#005795"/>
</g>
<defs>
<clipPath id="clip0">
<rect width="1138" height="406.07" fill="white"/>
</clipPath>
</defs>
</svg>
